<?xml version="1.0" encoding="utf-8"?>
<!-- Generator: Adobe Illustrator 21.0.0, SVG Export Plug-In . SVG Version: 6.00 Build 0)  -->
<svg version="1.1" id="Layer_1" xmlns="http://www.w3.org/2000/svg" xmlns:xlink="http://www.w3.org/1999/xlink" x="0px" y="0px"
	 viewBox="0 0 200 200" style="enable-background:new 0 0 200 200;" xml:space="preserve">
<style type="text/css">
	.st0{display:none;fill:#5D9CEC;}
	.st1{fill:#5D9CEC;}
	.st2{fill:#E6E9ED;}
	.st3{fill:#F5F7FA;}
</style>
<path class="st0" d="M200,165.3c0,2.6-1.9,4.7-4.2,4.7H4.2c-2.3,0-4.2-2.1-4.2-4.7V34.7C0,32.1,1.9,30,4.2,30h191.7
	c2.3,0,4.2,2.1,4.2,4.7V165.3L200,165.3z"/>
<path class="st1" d="M180,170H20c-5.5,0-10-4.5-10-10V40c0-5.5,4.5-10,10-10h160c5.5,0,10,4.5,10,10v120
	C190,165.5,185.5,170,180,170z"/>
<polygon class="st2" points="30,150 65,90 100,150 "/>
<polygon class="st3" points="70,150 120,60 170,150 "/>
</svg>
