<?xml version="1.0" encoding="iso-8859-1"?>
<!-- Generator: Adobe Illustrator 19.0.0, SVG Export Plug-In . SVG Version: 6.00 Build 0)  -->
<svg xmlns="http://www.w3.org/2000/svg" xmlns:xlink="http://www.w3.org/1999/xlink" version="1.1" id="Capa_1" x="0px" y="0px" viewBox="0 0 360 360" style="enable-background:new 0 0 360 360;" xml:space="preserve" width="512px" height="512px">
<g id="XMLID_967_">
	<path id="XMLID_968_" d="M346.126,125.281h-52.252V77.834L210.851,0H13.874v360h280v-51.991h52.252V125.281z M316.126,278.009h-210   V155.281h210V278.009z" fill="#2ecc71"/>
	<polygon id="XMLID_971_" points="137.542,206.525 153.646,237.325 160.246,237.325 176.35,206.525 176.35,247.885 188.494,247.885    188.494,185.405 175.558,185.405 156.902,220.957 138.422,185.405 125.398,185.405 125.398,247.885 137.542,247.885  " fill="#2ecc71"/>
	<path id="XMLID_972_" d="M213.661,226.941h14.784c2.874,0,5.514-0.586,7.92-1.76c2.405-1.173,4.458-2.728,6.16-4.664   c1.701-1.936,3.021-4.149,3.96-6.644c0.938-2.493,1.408-5.06,1.408-7.7c0-2.522-0.5-5.03-1.496-7.524   c-0.999-2.493-2.376-4.722-4.136-6.688c-1.76-1.965-3.858-3.549-6.292-4.752c-2.435-1.202-5.09-1.804-7.964-1.804h-26.488v62.48   h12.144V226.941z M213.661,196.053h13.552c1.056,0,2.097,0.22,3.124,0.66c1.026,0.44,1.921,1.1,2.684,1.98   c0.762,0.88,1.377,1.951,1.848,3.212c0.469,1.262,0.704,2.684,0.704,4.268c0,3.11-0.748,5.574-2.244,7.392   c-1.496,1.819-3.359,2.728-5.589,2.728h-14.08V196.053z" fill="#2ecc71"/>
	<path id="XMLID_975_" d="M277.318,247.357h11.792v-13.112h7.744v-10.56h-7.744v-37.752h-8.008l-29.48,37.84v10.472h25.696V247.357z    M263.413,223.685l15.224-19.888v19.888H263.413z" fill="#2ecc71"/>
</g>
<g>
</g>
<g>
</g>
<g>
</g>
<g>
</g>
<g>
</g>
<g>
</g>
<g>
</g>
<g>
</g>
<g>
</g>
<g>
</g>
<g>
</g>
<g>
</g>
<g>
</g>
<g>
</g>
<g>
</g>
</svg>
